<mxfile host="app.diagrams.net" modified="2023-09-17T17:40:45.508Z" agent="Mozilla/5.0 (X11; Ubuntu; Linux x86_64; rv:109.0) Gecko/20100101 Firefox/114.0" etag="UdPOHnFYDBCDXZjj6Y4B" version="21.7.5" type="github">
  <diagram name="Page-1" id="ISabs5PSMNV5WOwpyZsw">
    <mxGraphModel dx="3240" dy="1220" grid="1" gridSize="10" guides="1" tooltips="1" connect="1" arrows="1" fold="1" page="1" pageScale="1" pageWidth="850" pageHeight="1100" math="0" shadow="0">
      <root>
        <mxCell id="0" />
        <mxCell id="1" parent="0" />
        <mxCell id="Ook1uiOYriR1sVHCKash-1" value="EventProcessorFactory" style="swimlane;fontStyle=0;childLayout=stackLayout;horizontal=1;startSize=30;horizontalStack=0;resizeParent=1;resizeParentMax=0;resizeLast=0;collapsible=1;marginBottom=0;whiteSpace=wrap;html=1;" vertex="1" parent="1">
          <mxGeometry x="250" y="20" width="330" height="90" as="geometry" />
        </mxCell>
        <mxCell id="Ook1uiOYriR1sVHCKash-2" value="get_factory(machine_type : str) : EventProcessorFactory" style="text;strokeColor=none;fillColor=none;align=left;verticalAlign=middle;spacingLeft=4;spacingRight=4;overflow=hidden;points=[[0,0.5],[1,0.5]];portConstraint=eastwest;rotatable=0;whiteSpace=wrap;html=1;" vertex="1" parent="Ook1uiOYriR1sVHCKash-1">
          <mxGeometry y="30" width="330" height="30" as="geometry" />
        </mxCell>
        <mxCell id="Ook1uiOYriR1sVHCKash-3" value="create_processor() :EventProcessor" style="text;strokeColor=none;fillColor=none;align=left;verticalAlign=middle;spacingLeft=4;spacingRight=4;overflow=hidden;points=[[0,0.5],[1,0.5]];portConstraint=eastwest;rotatable=0;whiteSpace=wrap;html=1;" vertex="1" parent="Ook1uiOYriR1sVHCKash-1">
          <mxGeometry y="60" width="330" height="30" as="geometry" />
        </mxCell>
        <mxCell id="Ook1uiOYriR1sVHCKash-45" style="edgeStyle=orthogonalEdgeStyle;rounded=0;orthogonalLoop=1;jettySize=auto;html=1;exitX=1;exitY=0.111;exitDx=0;exitDy=0;exitPerimeter=0;endArrow=block;endFill=0;" edge="1" parent="1" source="Ook1uiOYriR1sVHCKash-7" target="Ook1uiOYriR1sVHCKash-1">
          <mxGeometry relative="1" as="geometry" />
        </mxCell>
        <mxCell id="Ook1uiOYriR1sVHCKash-48" style="edgeStyle=orthogonalEdgeStyle;rounded=0;orthogonalLoop=1;jettySize=auto;html=1;endArrow=open;endFill=0;dashed=1;dashPattern=8 8;" edge="1" parent="1" source="Ook1uiOYriR1sVHCKash-5" target="Ook1uiOYriR1sVHCKash-33">
          <mxGeometry relative="1" as="geometry" />
        </mxCell>
        <mxCell id="Ook1uiOYriR1sVHCKash-5" value="&lt;div&gt;EvProcessorFactory&lt;/div&gt;" style="swimlane;fontStyle=0;childLayout=stackLayout;horizontal=1;startSize=30;horizontalStack=0;resizeParent=1;resizeParentMax=0;resizeLast=0;collapsible=1;marginBottom=0;whiteSpace=wrap;html=1;" vertex="1" parent="1">
          <mxGeometry x="130" y="545" width="260" height="60" as="geometry" />
        </mxCell>
        <mxCell id="Ook1uiOYriR1sVHCKash-7" value="create_processor() : EvEventProcessor" style="text;strokeColor=none;fillColor=none;align=left;verticalAlign=middle;spacingLeft=4;spacingRight=4;overflow=hidden;points=[[0,0.5],[1,0.5]];portConstraint=eastwest;rotatable=0;whiteSpace=wrap;html=1;" vertex="1" parent="Ook1uiOYriR1sVHCKash-5">
          <mxGeometry y="30" width="260" height="30" as="geometry" />
        </mxCell>
        <mxCell id="Ook1uiOYriR1sVHCKash-46" style="edgeStyle=orthogonalEdgeStyle;rounded=0;orthogonalLoop=1;jettySize=auto;html=1;exitX=1;exitY=0.25;exitDx=0;exitDy=0;endArrow=block;endFill=0;" edge="1" parent="1" source="Ook1uiOYriR1sVHCKash-8" target="Ook1uiOYriR1sVHCKash-1">
          <mxGeometry relative="1" as="geometry">
            <Array as="points">
              <mxPoint x="510" y="720" />
              <mxPoint x="530" y="720" />
            </Array>
          </mxGeometry>
        </mxCell>
        <mxCell id="Ook1uiOYriR1sVHCKash-47" style="edgeStyle=orthogonalEdgeStyle;rounded=0;orthogonalLoop=1;jettySize=auto;html=1;endArrow=open;endFill=0;dashed=1;dashPattern=8 8;" edge="1" parent="1" source="Ook1uiOYriR1sVHCKash-8" target="Ook1uiOYriR1sVHCKash-38">
          <mxGeometry relative="1" as="geometry" />
        </mxCell>
        <mxCell id="Ook1uiOYriR1sVHCKash-8" value="FaultProcessorFactory" style="swimlane;fontStyle=0;childLayout=stackLayout;horizontal=1;startSize=30;horizontalStack=0;resizeParent=1;resizeParentMax=0;resizeLast=0;collapsible=1;marginBottom=0;whiteSpace=wrap;html=1;" vertex="1" parent="1">
          <mxGeometry x="250" y="690" width="260" height="60" as="geometry" />
        </mxCell>
        <mxCell id="Ook1uiOYriR1sVHCKash-10" value="create_processor() : FaultEventProcessor" style="text;strokeColor=none;fillColor=none;align=left;verticalAlign=middle;spacingLeft=4;spacingRight=4;overflow=hidden;points=[[0,0.5],[1,0.5]];portConstraint=eastwest;rotatable=0;whiteSpace=wrap;html=1;" vertex="1" parent="Ook1uiOYriR1sVHCKash-8">
          <mxGeometry y="30" width="260" height="30" as="geometry" />
        </mxCell>
        <mxCell id="Ook1uiOYriR1sVHCKash-43" style="edgeStyle=orthogonalEdgeStyle;rounded=0;orthogonalLoop=1;jettySize=auto;html=1;exitX=1;exitY=0.5;exitDx=0;exitDy=0;endArrow=block;endFill=0;" edge="1" parent="1" source="Ook1uiOYriR1sVHCKash-11" target="Ook1uiOYriR1sVHCKash-1">
          <mxGeometry relative="1" as="geometry">
            <mxPoint x="240" y="130" as="targetPoint" />
            <Array as="points">
              <mxPoint x="250" y="420" />
              <mxPoint x="340" y="420" />
            </Array>
          </mxGeometry>
        </mxCell>
        <mxCell id="Ook1uiOYriR1sVHCKash-49" style="edgeStyle=orthogonalEdgeStyle;rounded=0;orthogonalLoop=1;jettySize=auto;html=1;endArrow=open;endFill=0;exitX=-0.006;exitY=0;exitDx=0;exitDy=0;exitPerimeter=0;dashed=1;dashPattern=8 8;" edge="1" parent="1" source="Ook1uiOYriR1sVHCKash-13" target="Ook1uiOYriR1sVHCKash-29">
          <mxGeometry relative="1" as="geometry">
            <Array as="points">
              <mxPoint x="-60" y="410" />
              <mxPoint x="-60" y="410" />
            </Array>
          </mxGeometry>
        </mxCell>
        <mxCell id="Ook1uiOYriR1sVHCKash-11" value="MotorcycleProcessorFactory" style="swimlane;fontStyle=0;childLayout=stackLayout;horizontal=1;startSize=30;horizontalStack=0;resizeParent=1;resizeParentMax=0;resizeLast=0;collapsible=1;marginBottom=0;whiteSpace=wrap;html=1;" vertex="1" parent="1">
          <mxGeometry x="-10" y="380" width="260" height="60" as="geometry" />
        </mxCell>
        <mxCell id="Ook1uiOYriR1sVHCKash-13" value="create_processor() :MotorcycleEventProcessor" style="text;strokeColor=none;fillColor=none;align=left;verticalAlign=middle;spacingLeft=4;spacingRight=4;overflow=hidden;points=[[0,0.5],[1,0.5]];portConstraint=eastwest;rotatable=0;whiteSpace=wrap;html=1;" vertex="1" parent="Ook1uiOYriR1sVHCKash-11">
          <mxGeometry y="30" width="260" height="30" as="geometry" />
        </mxCell>
        <mxCell id="Ook1uiOYriR1sVHCKash-52" style="edgeStyle=orthogonalEdgeStyle;rounded=0;orthogonalLoop=1;jettySize=auto;html=1;endArrow=open;endFill=0;dashed=1;dashPattern=8 8;" edge="1" parent="1" source="Ook1uiOYriR1sVHCKash-14" target="Ook1uiOYriR1sVHCKash-27">
          <mxGeometry relative="1" as="geometry">
            <Array as="points">
              <mxPoint x="-240" y="265" />
              <mxPoint x="-240" y="265" />
            </Array>
          </mxGeometry>
        </mxCell>
        <mxCell id="Ook1uiOYriR1sVHCKash-14" value="CarProcessorFactory" style="swimlane;fontStyle=0;childLayout=stackLayout;horizontal=1;startSize=30;horizontalStack=0;resizeParent=1;resizeParentMax=0;resizeLast=0;collapsible=1;marginBottom=0;whiteSpace=wrap;html=1;" vertex="1" parent="1">
          <mxGeometry x="-140" y="235" width="260" height="60" as="geometry" />
        </mxCell>
        <mxCell id="Ook1uiOYriR1sVHCKash-16" value="create_processor() : CarEventProcessor" style="text;strokeColor=none;fillColor=none;align=left;verticalAlign=middle;spacingLeft=4;spacingRight=4;overflow=hidden;points=[[0,0.5],[1,0.5]];portConstraint=eastwest;rotatable=0;whiteSpace=wrap;html=1;" vertex="1" parent="Ook1uiOYriR1sVHCKash-14">
          <mxGeometry y="30" width="260" height="30" as="geometry" />
        </mxCell>
        <mxCell id="Ook1uiOYriR1sVHCKash-17" style="edgeStyle=orthogonalEdgeStyle;rounded=0;orthogonalLoop=1;jettySize=auto;html=1;endArrow=block;endFill=0;exitX=1;exitY=0.25;exitDx=0;exitDy=0;" edge="1" parent="1" source="Ook1uiOYriR1sVHCKash-14" target="Ook1uiOYriR1sVHCKash-1">
          <mxGeometry relative="1" as="geometry">
            <Array as="points">
              <mxPoint x="120" y="260" />
              <mxPoint x="280" y="260" />
            </Array>
          </mxGeometry>
        </mxCell>
        <mxCell id="Ook1uiOYriR1sVHCKash-21" value="EventProcessor" style="swimlane;fontStyle=0;childLayout=stackLayout;horizontal=1;startSize=30;horizontalStack=0;resizeParent=1;resizeParentMax=0;resizeLast=0;collapsible=1;marginBottom=0;whiteSpace=wrap;html=1;" vertex="1" parent="1">
          <mxGeometry x="-760" y="5" width="300" height="120" as="geometry" />
        </mxCell>
        <mxCell id="Ook1uiOYriR1sVHCKash-22" value="process_event(event_df : DataFrame) : void" style="text;strokeColor=none;fillColor=none;align=left;verticalAlign=middle;spacingLeft=4;spacingRight=4;overflow=hidden;points=[[0,0.5],[1,0.5]];portConstraint=eastwest;rotatable=0;whiteSpace=wrap;html=1;" vertex="1" parent="Ook1uiOYriR1sVHCKash-21">
          <mxGeometry y="30" width="300" height="30" as="geometry" />
        </mxCell>
        <mxCell id="Ook1uiOYriR1sVHCKash-23" value="validate_event(event_df: DataFrame) : DataFrame" style="text;strokeColor=none;fillColor=none;align=left;verticalAlign=middle;spacingLeft=4;spacingRight=4;overflow=hidden;points=[[0,0.5],[1,0.5]];portConstraint=eastwest;rotatable=0;whiteSpace=wrap;html=1;" vertex="1" parent="Ook1uiOYriR1sVHCKash-21">
          <mxGeometry y="60" width="300" height="30" as="geometry" />
        </mxCell>
        <mxCell id="Ook1uiOYriR1sVHCKash-24" value="json_parser(event_df : DataFrame) : DataFrame" style="text;strokeColor=none;fillColor=none;align=left;verticalAlign=middle;spacingLeft=4;spacingRight=4;overflow=hidden;points=[[0,0.5],[1,0.5]];portConstraint=eastwest;rotatable=0;whiteSpace=wrap;html=1;" vertex="1" parent="Ook1uiOYriR1sVHCKash-21">
          <mxGeometry y="90" width="300" height="30" as="geometry" />
        </mxCell>
        <mxCell id="Ook1uiOYriR1sVHCKash-57" style="edgeStyle=orthogonalEdgeStyle;rounded=0;orthogonalLoop=1;jettySize=auto;html=1;exitX=0;exitY=1.278;exitDx=0;exitDy=0;exitPerimeter=0;endArrow=block;endFill=0;" edge="1" parent="1" source="Ook1uiOYriR1sVHCKash-26">
          <mxGeometry relative="1" as="geometry">
            <mxPoint x="-593" y="120" as="targetPoint" />
            <Array as="points">
              <mxPoint x="-593" y="273" />
            </Array>
          </mxGeometry>
        </mxCell>
        <mxCell id="Ook1uiOYriR1sVHCKash-25" value="CarEventProcessor" style="swimlane;fontStyle=0;childLayout=stackLayout;horizontal=1;startSize=30;horizontalStack=0;resizeParent=1;resizeParentMax=0;resizeLast=0;collapsible=1;marginBottom=0;whiteSpace=wrap;html=1;" vertex="1" parent="1">
          <mxGeometry x="-570" y="205" width="300" height="120" as="geometry" />
        </mxCell>
        <mxCell id="Ook1uiOYriR1sVHCKash-26" value="process_event(event_df : DataFrame) : void" style="text;strokeColor=none;fillColor=none;align=left;verticalAlign=middle;spacingLeft=4;spacingRight=4;overflow=hidden;points=[[0,0.5],[1,0.5]];portConstraint=eastwest;rotatable=0;whiteSpace=wrap;html=1;" vertex="1" parent="Ook1uiOYriR1sVHCKash-25">
          <mxGeometry y="30" width="300" height="30" as="geometry" />
        </mxCell>
        <mxCell id="Ook1uiOYriR1sVHCKash-27" value="validate_event(event_df: DataFrame) : DataFrame" style="text;strokeColor=none;fillColor=none;align=left;verticalAlign=middle;spacingLeft=4;spacingRight=4;overflow=hidden;points=[[0,0.5],[1,0.5]];portConstraint=eastwest;rotatable=0;whiteSpace=wrap;html=1;" vertex="1" parent="Ook1uiOYriR1sVHCKash-25">
          <mxGeometry y="60" width="300" height="30" as="geometry" />
        </mxCell>
        <mxCell id="Ook1uiOYriR1sVHCKash-28" value="json_parser(event_df : DataFrame) : DataFrame" style="text;strokeColor=none;fillColor=none;align=left;verticalAlign=middle;spacingLeft=4;spacingRight=4;overflow=hidden;points=[[0,0.5],[1,0.5]];portConstraint=eastwest;rotatable=0;whiteSpace=wrap;html=1;" vertex="1" parent="Ook1uiOYriR1sVHCKash-25">
          <mxGeometry y="90" width="300" height="30" as="geometry" />
        </mxCell>
        <mxCell id="Ook1uiOYriR1sVHCKash-58" style="edgeStyle=orthogonalEdgeStyle;rounded=0;orthogonalLoop=1;jettySize=auto;html=1;exitX=0;exitY=0.889;exitDx=0;exitDy=0;exitPerimeter=0;endArrow=block;endFill=0;" edge="1" parent="1" source="Ook1uiOYriR1sVHCKash-30" target="Ook1uiOYriR1sVHCKash-21">
          <mxGeometry relative="1" as="geometry">
            <Array as="points">
              <mxPoint x="-650" y="412" />
            </Array>
          </mxGeometry>
        </mxCell>
        <mxCell id="Ook1uiOYriR1sVHCKash-29" value="MotorcycleEventProcessor" style="swimlane;fontStyle=0;childLayout=stackLayout;horizontal=1;startSize=30;horizontalStack=0;resizeParent=1;resizeParentMax=0;resizeLast=0;collapsible=1;marginBottom=0;whiteSpace=wrap;html=1;" vertex="1" parent="1">
          <mxGeometry x="-630" y="355" width="300" height="120" as="geometry" />
        </mxCell>
        <mxCell id="Ook1uiOYriR1sVHCKash-30" value="process_event(event_df : DataFrame) : void" style="text;strokeColor=none;fillColor=none;align=left;verticalAlign=middle;spacingLeft=4;spacingRight=4;overflow=hidden;points=[[0,0.5],[1,0.5]];portConstraint=eastwest;rotatable=0;whiteSpace=wrap;html=1;" vertex="1" parent="Ook1uiOYriR1sVHCKash-29">
          <mxGeometry y="30" width="300" height="30" as="geometry" />
        </mxCell>
        <mxCell id="Ook1uiOYriR1sVHCKash-31" value="validate_event(event_df: DataFrame) : DataFrame" style="text;strokeColor=none;fillColor=none;align=left;verticalAlign=middle;spacingLeft=4;spacingRight=4;overflow=hidden;points=[[0,0.5],[1,0.5]];portConstraint=eastwest;rotatable=0;whiteSpace=wrap;html=1;" vertex="1" parent="Ook1uiOYriR1sVHCKash-29">
          <mxGeometry y="60" width="300" height="30" as="geometry" />
        </mxCell>
        <mxCell id="Ook1uiOYriR1sVHCKash-32" value="json_parser(event_df : DataFrame) : DataFrame" style="text;strokeColor=none;fillColor=none;align=left;verticalAlign=middle;spacingLeft=4;spacingRight=4;overflow=hidden;points=[[0,0.5],[1,0.5]];portConstraint=eastwest;rotatable=0;whiteSpace=wrap;html=1;" vertex="1" parent="Ook1uiOYriR1sVHCKash-29">
          <mxGeometry y="90" width="300" height="30" as="geometry" />
        </mxCell>
        <mxCell id="Ook1uiOYriR1sVHCKash-33" value="EvEventProcessor" style="swimlane;fontStyle=0;childLayout=stackLayout;horizontal=1;startSize=30;horizontalStack=0;resizeParent=1;resizeParentMax=0;resizeLast=0;collapsible=1;marginBottom=0;whiteSpace=wrap;html=1;" vertex="1" parent="1">
          <mxGeometry x="-690" y="515" width="300" height="120" as="geometry" />
        </mxCell>
        <mxCell id="Ook1uiOYriR1sVHCKash-34" value="process_event(event_df : DataFrame) : void" style="text;strokeColor=none;fillColor=none;align=left;verticalAlign=middle;spacingLeft=4;spacingRight=4;overflow=hidden;points=[[0,0.5],[1,0.5]];portConstraint=eastwest;rotatable=0;whiteSpace=wrap;html=1;" vertex="1" parent="Ook1uiOYriR1sVHCKash-33">
          <mxGeometry y="30" width="300" height="30" as="geometry" />
        </mxCell>
        <mxCell id="Ook1uiOYriR1sVHCKash-35" value="validate_event(event_df: DataFrame) : DataFrame" style="text;strokeColor=none;fillColor=none;align=left;verticalAlign=middle;spacingLeft=4;spacingRight=4;overflow=hidden;points=[[0,0.5],[1,0.5]];portConstraint=eastwest;rotatable=0;whiteSpace=wrap;html=1;" vertex="1" parent="Ook1uiOYriR1sVHCKash-33">
          <mxGeometry y="60" width="300" height="30" as="geometry" />
        </mxCell>
        <mxCell id="Ook1uiOYriR1sVHCKash-36" value="json_parser(event_df : DataFrame) : DataFrame" style="text;strokeColor=none;fillColor=none;align=left;verticalAlign=middle;spacingLeft=4;spacingRight=4;overflow=hidden;points=[[0,0.5],[1,0.5]];portConstraint=eastwest;rotatable=0;whiteSpace=wrap;html=1;" vertex="1" parent="Ook1uiOYriR1sVHCKash-33">
          <mxGeometry y="90" width="300" height="30" as="geometry" />
        </mxCell>
        <mxCell id="Ook1uiOYriR1sVHCKash-60" style="edgeStyle=orthogonalEdgeStyle;rounded=0;orthogonalLoop=1;jettySize=auto;html=1;exitX=0;exitY=0.5;exitDx=0;exitDy=0;endArrow=block;endFill=0;" edge="1" parent="1" source="Ook1uiOYriR1sVHCKash-38" target="Ook1uiOYriR1sVHCKash-21">
          <mxGeometry relative="1" as="geometry">
            <Array as="points">
              <mxPoint x="-740" y="720" />
            </Array>
          </mxGeometry>
        </mxCell>
        <mxCell id="Ook1uiOYriR1sVHCKash-37" value="FaultEventProcessor" style="swimlane;fontStyle=0;childLayout=stackLayout;horizontal=1;startSize=30;horizontalStack=0;resizeParent=1;resizeParentMax=0;resizeLast=0;collapsible=1;marginBottom=0;whiteSpace=wrap;html=1;" vertex="1" parent="1">
          <mxGeometry x="-720" y="675" width="300" height="90" as="geometry" />
        </mxCell>
        <mxCell id="Ook1uiOYriR1sVHCKash-38" value="process_event(event_df : DataFrame) : void" style="text;strokeColor=none;fillColor=none;align=left;verticalAlign=middle;spacingLeft=4;spacingRight=4;overflow=hidden;points=[[0,0.5],[1,0.5]];portConstraint=eastwest;rotatable=0;whiteSpace=wrap;html=1;" vertex="1" parent="Ook1uiOYriR1sVHCKash-37">
          <mxGeometry y="30" width="300" height="30" as="geometry" />
        </mxCell>
        <mxCell id="Ook1uiOYriR1sVHCKash-40" value="json_parser(event_df : DataFrame) : DataFrame" style="text;strokeColor=none;fillColor=none;align=left;verticalAlign=middle;spacingLeft=4;spacingRight=4;overflow=hidden;points=[[0,0.5],[1,0.5]];portConstraint=eastwest;rotatable=0;whiteSpace=wrap;html=1;" vertex="1" parent="Ook1uiOYriR1sVHCKash-37">
          <mxGeometry y="60" width="300" height="30" as="geometry" />
        </mxCell>
        <mxCell id="Ook1uiOYriR1sVHCKash-41" style="edgeStyle=orthogonalEdgeStyle;rounded=0;orthogonalLoop=1;jettySize=auto;html=1;endArrow=open;endFill=0;dashed=1;dashPattern=8 8;" edge="1" parent="1" source="Ook1uiOYriR1sVHCKash-2" target="Ook1uiOYriR1sVHCKash-21">
          <mxGeometry relative="1" as="geometry" />
        </mxCell>
        <mxCell id="Ook1uiOYriR1sVHCKash-42" value="&amp;lt;&amp;lt;use&amp;gt;&amp;gt;" style="text;html=1;strokeColor=none;fillColor=none;align=center;verticalAlign=middle;whiteSpace=wrap;rounded=0;" vertex="1" parent="1">
          <mxGeometry x="-200" y="20" width="160" height="30" as="geometry" />
        </mxCell>
        <mxCell id="Ook1uiOYriR1sVHCKash-53" value="&amp;lt;&amp;lt;create&amp;gt;&amp;gt;" style="text;html=1;strokeColor=none;fillColor=none;align=center;verticalAlign=middle;whiteSpace=wrap;rounded=0;" vertex="1" parent="1">
          <mxGeometry x="-230" y="230" width="60" height="30" as="geometry" />
        </mxCell>
        <mxCell id="Ook1uiOYriR1sVHCKash-54" value="&amp;lt;&amp;lt;create&amp;gt;&amp;gt;" style="text;html=1;strokeColor=none;fillColor=none;align=center;verticalAlign=middle;whiteSpace=wrap;rounded=0;" vertex="1" parent="1">
          <mxGeometry x="-200" y="370" width="60" height="30" as="geometry" />
        </mxCell>
        <mxCell id="Ook1uiOYriR1sVHCKash-55" value="&amp;lt;&amp;lt;create&amp;gt;&amp;gt;" style="text;html=1;strokeColor=none;fillColor=none;align=center;verticalAlign=middle;whiteSpace=wrap;rounded=0;" vertex="1" parent="1">
          <mxGeometry x="-150" y="545" width="60" height="30" as="geometry" />
        </mxCell>
        <mxCell id="Ook1uiOYriR1sVHCKash-56" value="&amp;lt;&amp;lt;create&amp;gt;&amp;gt;" style="text;html=1;strokeColor=none;fillColor=none;align=center;verticalAlign=middle;whiteSpace=wrap;rounded=0;" vertex="1" parent="1">
          <mxGeometry x="-130" y="690" width="60" height="30" as="geometry" />
        </mxCell>
        <mxCell id="Ook1uiOYriR1sVHCKash-59" style="edgeStyle=orthogonalEdgeStyle;rounded=0;orthogonalLoop=1;jettySize=auto;html=1;entryX=0.167;entryY=1;entryDx=0;entryDy=0;entryPerimeter=0;endArrow=block;endFill=0;" edge="1" parent="1" source="Ook1uiOYriR1sVHCKash-34" target="Ook1uiOYriR1sVHCKash-24">
          <mxGeometry relative="1" as="geometry" />
        </mxCell>
      </root>
    </mxGraphModel>
  </diagram>
</mxfile>
